<svg width="388" height="366" viewBox="0 0 388 366" fill="none" xmlns="http://www.w3.org/2000/svg">
    <path d="M8.14874 238.448L6.33749 236.636C-1.51126 228.788 -1.51126 216.109 6.33749 208.26L128.899 85.4975C136.747 77.6488 149.426 77.6488 157.275 85.4975L223.486 151.709L352.085 7.21125C359.732 -1.4425 373.216 -1.64375 381.266 6.40625C388.713 14.0538 389.115 26.1288 382.071 33.9775L237.775 196.386C230.127 205.04 216.845 205.443 208.594 197.191L143.187 131.785L36.525 238.448C28.8775 246.296 15.9975 246.296 8.14874 238.448ZM36.525 359.198L143.187 252.535L208.594 317.941C216.845 326.193 230.127 325.79 237.775 317.136L382.071 154.728C389.115 146.879 388.713 134.804 381.266 127.156C373.216 119.106 359.732 119.308 352.085 127.961L223.486 272.459L157.275 206.248C149.426 198.399 136.747 198.399 128.899 206.248L6.33749 329.01C-1.51126 336.859 -1.51126 349.538 6.33749 357.386L8.14874 359.198C15.9975 367.046 28.8775 367.046 36.525 359.198Z" fill="#36B7FF" />
</svg>